<?xml version="1.0" encoding="UTF-8"?>
<svg id="Layer_1" xmlns="http://www.w3.org/2000/svg" version="1.1" viewBox="0 0 258.9 67.9">
  <!-- Generator: Adobe Illustrator 29.1.0, SVG Export Plug-In . SVG Version: 2.1.0 Build 142)  -->
  <defs>
    <style>
      .st0 {
        display: none;
        font-family: Montserrat-Bold, Montserrat;
        font-size: 12px;
        font-weight: 700;
      }

      .st0, .st1 {
        fill: #fff;
      }

      .st2 {
        fill: #2b2e69;
      }

      .st2, .st3, .st4, .st5, .st6, .st7, .st8 {
        fill-rule: evenodd;
      }

      .st3 {
        fill: #3b3b3b;
      }

      .st4 {
        fill: #75348a;
      }

      .st5 {
        fill: #59529f;
      }

      .st6 {
        fill: #146cb5;
      }

      .st7 {
        fill: #532d7b;
      }

      .st8 {
        fill: #2a4b8f;
      }
    </style>
  </defs>
  <g>
    <path id="Fill-276" class="st3" d="M28.8,22.2c-.1.8-.3,1.5-.6,2.1s-.7,1-1.2,1.4-1,.6-1.5.7-1.2.2-1.8.2-1.2,0-1.7-.2-1-.4-1.4-.7-.7-.7-.9-1.3c-.2-.5-.2-1.2-.2-1.9s.2-1,.4-1.6c.2-.6.5-1.2.9-1.8l2,.7c-.2.3-.3.6-.4.8l-.3.6c0,.2-.1.4-.2.6,0,.2-.1.4-.1.6v1.1c0,.3.3.5.5.7s.5.3.7.4.6,0,.8,0c.7,0,1.3-.2,1.7-.6s.7-1,.8-1.8l1.4-11.1h2.3l-1.4,11h.2Z"/>
    <path id="Fill-278" class="st3" d="M35.1,22.7c0,.3,0,.6,0,.7q0,.2,0,.2c-.5,0-1,0-1.5,0s-.9-.2-1.2-.4c-.4-.2-.6-.5-.8-.8-.2-.4-.2-.8-.2-1.2l1.3-9.8h2.3l-1.2,9v.7c0,.2.2.4.3.5s.3.2.4.2h.5c0,0,.3,0,.3.3,0,.2,0,.4,0,.7"/>
    <path id="Fill-280" class="st3" d="M40.7,17.9c-.3,0-.6,0-.8.3s-.5.4-.6.7c-.2.3-.4.6-.5.9-.2.4-.3.7-.3,1.2.3.3.6.5.8.7s.6.2.9.2.9-.2,1.2-.5.5-.8.6-1.3c0-.7,0-1.2-.2-1.5-.2-.4-.6-.6-1.1-.6h0ZM34.8,23.7c-.3,0-.5,0-.6-.2-.2-.2-.2-.4-.2-.7s0-.6.3-.7c0-.2.3-.3.5-.3h.5c.2,0,.4,0,.5,0,.2,0,.3-.2.4-.3,0-.2.2-.3.2-.5s.2-.4.2-.7c0-.6.3-1.2.6-1.7s.6-1,1-1.3c.4-.4.8-.7,1.3-.9s1-.3,1.6-.3,1.2,0,1.6.3c.5.2.9.5,1.1.8.3.4.5.8.6,1.2s0,1,0,1.5c0,.2,0,.4,0,.6,0,.2,0,.4-.2.6,0,.2.3.4.6.5.3.2.6.2.9.2s.3,0,.3.3v1.5h0c-.2,0-.4,0-.6,0s-.4,0-.7-.2c-.2,0-.4-.2-.6-.4-.2-.2-.4-.4-.5-.6-.5.4-.9.7-1.4.9s-1,.3-1.6.3-1,0-1.4-.2-.8-.4-1.2-.8c-.3.4-.7.6-1,.7-.3,0-.7.2-1.3.2h-.5v-.2l-.3.4Z"/>
    <path id="Fill-282" class="st3" d="M45.6,23.7c-.3,0-.5,0-.6-.2s-.2-.4-.2-.7,0-.6.3-.7c0-.2.3-.3.5-.3h1.5c-.2-.3-.3-.6-.4-1,0-.3,0-.7,0-1,0-.6.3-1.2.6-1.7s.7-.9,1.1-1.2.9-.6,1.4-.7c.5-.2,1.1-.3,1.6-.3s.9,0,1.3,0c.5,0,.8.2,1.1.3l-.6,1.8c-.2,0-.4,0-.7-.2h-1c-.3,0-.5,0-.8,0-.3,0-.5.2-.7.3-.3.2-.4.4-.6.6-.2.3-.3.6-.3.9,0,.6,0,1.1.4,1.4.4.4.9.5,1.6.5h2.3l-.3,1.9h-7.5,0Z"/>
    <path id="Fill-284" class="st3" d="M58.2,11.1c0-.3-.2-.6-.2-.8,0-.5.3-.9.7-1.2.4-.3.9-.5,1.4-.5h.5c.2,0,.4,0,.5.1l-.4.9c-.2-.1-.5-.1-.7-.1s-.6,0-.7.2-.3.3-.3.6,0,.5.2.6c.2.2.4.2.7.2h1v1h-3.5v-1s.8,0,.8,0ZM57.8,13.1h2.3l-1,7.8h-2.3l1-7.8ZM63.1,22.5c-.3.4-.7.7-1.2.9s-1,.3-1.7.3h-5.4l.3-1.9h4.4c.7,0,1.2-.2,1.5-.5s.5-.8.6-1.6l1.1-8.5h2.3l-1.1,8.9c0,.5,0,.9.4,1.2.3.3.7.5,1.3.5s.3,0,.4.2v.7c0,.4,0,.7-.2.8s0,.2-.2.2h-.7c-.2,0-.5,0-.7-.2-.2,0-.4-.2-.6-.4-.2,0-.4-.3-.5-.5h0Z"/>
    <path id="Fill-286" class="st3" d="M65.5,21.8c.4,0,.7,0,.9,0,.3,0,.4-.2.6-.3.2-.2.3-.3.3-.5s0-.4.2-.7l1.1-8.9h2.3l-1.2,9.3c0,.5-.2,1-.4,1.3s-.4.7-.7.9c-.3.3-.7.5-1.2.6s-1.1.2-1.8.2-.5,0-.6-.2-.2-.4-.2-.7,0-.6.3-.7c.2-.2.3-.3.5-.3"/>
    <path id="Fill-288" class="st3" d="M80.8,27.9c0-.4.2-.6.5-.9.3-.2.6-.4.9-.4s.6,0,.8.4c.2.2.3.5.2.9s-.2.7-.5.9-.6.4-.9.4-.6,0-.8-.4-.3-.5-.3-.9M77.8,27.9c0-.4.2-.6.5-.9.3-.2.6-.4.9-.4s.6,0,.8.4c.2.2.3.5.2.9s-.2.7-.5.9-.6.4-.9.4-.6,0-.8-.4-.3-.5-.3-.9M78.1,21c0,.8.2,1.4.7,1.7.6.4,1.4.6,2.7.6s1.1,0,1.5,0,.8-.2,1.2-.3c.3,0,.6-.3.8-.4.2-.2.3-.3.3-.4,0-.2,0-.4-.4-.7s-.8-.5-1.4-.9c-.7-.4-1.2-.8-1.5-1.2s-.4-1-.4-1.6.2-.8.4-1.2c.2-.4.5-.7.9-1s.8-.5,1.3-.7,1.1-.3,1.7-.3h1.1c.2,0,.4,0,.6,0,.2,0,.3,0,.5.2l-.6,1.7c-.2,0-.4,0-.6-.2s-.6,0-.8,0h-.6c-.2,0-.5,0-.7.2-.2,0-.4.2-.5.4-.2.2-.2.4-.3.6,0,.2,0,.3,0,.5s.2.3.4.5c.2.2.4.3.6.4.2.2.4.3.7.4.3.2.6.4.8.5s.5.4.7.6c.2.2.3.4.4.7s0,.5,0,.8c0,.5-.3.9-.6,1.3-.3.4-.7.8-1.2,1-.5.3-1.2.5-1.9.7s-1.6.3-2.5.3-1.8,0-2.5-.2-1.3-.4-1.8-.7c-.5-.4-.8-.8-1.1-1.3-.2-.5-.3-1.2-.2-1.9,0-.4.2-.9.4-1.5.2-.6.5-1.2.9-1.8l2,.8c-.2.4-.4.8-.6,1.3-.3.5-.4.8-.4,1.2"/>
    <path id="Fill-290" class="st3" d="M91.8,21.8c.6,0,1,0,1.2-.4.3-.2.5-.6.6-1.2v-.4c0-.6,0-1-.4-1.3s-.9-.5-1.6-.5h-1.6l.3-1.9h2.1c.7,0,1.3,0,1.8.3s.9.4,1.2.7c.3.3.5.6.6,1s.2.8,0,1.3l-.2,1.1c-.2,1.1-.5,2-1,2.4-.5.5-1.3.8-2.4.8h-4.2l.3-1.9s3.2,0,3.2,0Z"/>
    <path id="Fill-292" class="st3" d="M100,19.9c0,.6,0,1.1.3,1.4s.7.5,1.3.5h1.3l.3-2v-.7c0-.2,0-.4-.2-.6,0-.2-.2-.3-.4-.4s-.4-.2-.6-.2-.4,0-.6,0c-.2,0-.4.2-.6.4s-.3.4-.5.6c-.2.3-.3.5-.3.9M100.4,24.7h.9c.3,0,.5,0,.7-.2.2,0,.4-.2.5-.4s.2-.4.2-.6h-1.6c-.6,0-1.1,0-1.5-.2-.5-.2-.8-.4-1.1-.6-.3-.3-.5-.7-.7-1.1-.2-.5-.2-1,0-1.6,0-.5.2-1,.5-1.5.2-.5.5-.9.9-1.3s.9-.7,1.4-.9,1.1-.4,1.8-.4,1,0,1.4.3.8.4,1.1.7c.3.3.5.7.7,1.1s.2,1,0,1.6l-.3,2.1h1.2c.2,0,.3,0,.3.2v.7c0,.4,0,.6-.2.8,0,0,0,.2-.2.2h-1.5c-.2.5-.4,1-.6,1.4-.3.4-.6.7-1,.9s-.9.4-1.4.5-1.1.2-1.7.2h-1.1c-.4,0-.7,0-1-.2l.6-1.8c.3,0,.5,0,.8.2.2.2.5.2.8.2"/>
    <path id="Fill-294" class="st3" d="M111.5,17.9h-.6c-.2,0-.4,0-.6,0-.2,0-.4,0-.5.2s-.3,0-.3.2c.4.4.8.8,1.1,1.2.3.4.6.8.8,1.2.2,0,.4-.2.6-.4s.4-.3.5-.5c.2-.2.3-.3.4-.5s.2-.4.2-.6v-.3c0,0,0-.2-.3-.3,0,0-.3-.2-.5-.2-.2,0-.4,0-.7,0h0ZM106.5,23.7c-.3,0-.5,0-.6-.3s-.2-.4-.2-.7,0-.6.3-.7c0-.2.3-.3.5-.3h2.7c.3,0,.5,0,.6-.2-.3-.3-.5-.5-.6-.7-.2-.2-.4-.4-.6-.6-.2-.2-.4-.4-.6-.5s-.5-.4-.8-.5c0,0,0-.3,0-.5s0-.4.2-.6c0-.2,0-.4.2-.6,0-.2,0-.3.2-.4.2,0,.5-.3.8-.4s.6-.3,1-.4c.4,0,.7-.2,1.1-.3s.7,0,1.1,0c.6,0,1,0,1.5.2s.9.3,1.2.5c.3.2.6.5.8.8.2.3.2.7.2,1.1s-.2.6-.3.9c-.2.3-.4.6-.6.8s-.5.5-.8.8-.6.5-1,.6c.2,0,.3,0,.6,0h2.3c.2,0,.3,0,.3.2v.7c0,.4,0,.7-.2.8,0,0,0,.2-.2.2h-2.4c-.6,0-1.1,0-1.5-.2-.4,0-.8-.3-1-.5-.4.2-.9.4-1.4.5s-1.1.2-1.6.2h-1.3Z"/>
    <path id="Fill-296" class="st3" d="M121.3,23.7c-.6,0-1,0-1.4-.3s-.7-.5-.8-.8c-.3.4-.7.6-1.3.8s-1.2.3-2.1.3-.5,0-.6-.2c-.2-.2-.2-.4-.2-.7s0-.6.3-.7.3-.3.5-.3c.6,0,1.1,0,1.4-.3s.5-.6.6-1.2l.4-2.6h2.3l-.4,2.8v.5c0,.2,0,.3.2.4,0,0,.2.2.4.3.2,0,.4,0,.6,0,.4,0,.7,0,.9-.3.2-.2.4-.6.4-1.3l.4-2.6h2.3l-.4,2.8v.5c0,.2,0,.3,0,.4,0,0,.2.2.4.3.2,0,.4,0,.6,0,.4,0,.7,0,.9-.3.2-.2.3-.6.4-1.2l.5-4.1h2.3l-.5,4c0,.5,0,.9.4,1.2s.7.5,1.3.5.3,0,.4.2,0,.4,0,.7-.1.7-.2.8c0,0-.1.2-.2.2h-.7c-.3,0-.5,0-.7-.2-.3,0-.5-.2-.7-.4s-.4-.3-.5-.5c-.3.4-.6.6-1,.8-.4.2-.9.3-1.4.3s-1,0-1.4-.3-.7-.5-.8-.8c-.8.7-1.6,1-2.6,1"/>
    <path id="Fill-298" class="st3" d="M130.8,21.8c.4,0,.7,0,.9,0,.3,0,.4-.2.6-.3.2-.2.3-.3.3-.5s.1-.4.2-.7l1.1-8.9h2.3l-1.2,9.3c0,.5-.2,1-.4,1.3-.2.4-.4.7-.7.9s-.7.5-1.2.6-1.1.2-1.8.2-.5,0-.6-.2c-.2-.2-.2-.4-.2-.7s.1-.6.3-.7c.1-.2.3-.3.5-.3"/>
    <polygon id="Fill-300" class="st3" points="140.8 11.3 139.2 23.7 136.9 23.7 138.4 11.3 140.8 11.3"/>
    <path id="Fill-302" class="st3" d="M147.9,13.3c0-.4.2-.6.5-.9.3-.2.6-.4.9-.4s.6.1.8.4c.2.2.3.5.2.9s-.2.7-.5.9-.6.4-.9.4-.6,0-.8-.4c-.2-.3-.3-.6-.3-.9M145.6,26.6h-.9c-.2,0-.5,0-.7-.2l.5-1.8h.8c.4,0,.8,0,1-.4s.4-.7.4-1.2l.9-7h2.3l-.7,5.6h1.4c.2,0,.3,0,.4.2v.7c0,.4-.1.6-.2.7,0,0-.1.2-.2.2h-1.7c-.1.6-.3,1.1-.5,1.5s-.5.7-.8.9-.6.4-1,.5h-1.1"/>
    <path id="Fill-304" class="st3" d="M150.6,23.7c-.3,0-.5,0-.6-.2-.2-.2-.2-.4-.2-.7s.1-.6.3-.7c.1-.2.3-.3.5-.3h4.9c.6,0,1,0,1.3-.4s.5-.7.5-1.2v-.5c.2-1.2-.4-1.7-1.8-1.7h-3.6l.3-1.9,5.2-4.8,1.4,1.4-3.7,3.4h1.3c.7,0,1.2,0,1.7.3s.8.4,1.1.7.5.6.6,1,.1.8,0,1.3l-.2,1.1c-.2,1.1-.5,2-1,2.5s-1.3.7-2.4.7h-5.6Z"/>
    <path id="Fill-306" class="st3" d="M160.9,26.6h-.9c-.2,0-.5,0-.7-.2l.5-1.8h.8c.4,0,.8,0,1-.4s.4-.7.4-1.2l.9-7h2.3l-.7,5.6h1.4c.2,0,.3,0,.3.2v.7c0,.4-.1.6-.2.7,0,0-.1.2-.2.2h-1.7c-.1.6-.3,1.1-.5,1.5s-.5.7-.8.9-.6.4-1,.5h-1.1"/>
    <path id="Fill-308" class="st3" d="M171.9,17.9c-.3,0-.6,0-.8.3s-.5.4-.6.7c-.2.3-.4.6-.5.9-.2.4-.3.7-.3,1.2.3.3.6.5.8.7s.6.2.9.2.9-.2,1.2-.5.5-.8.6-1.3c.1-.7,0-1.2-.2-1.5-.2-.4-.6-.6-1.1-.6h0ZM166,23.7c-.3,0-.5,0-.6-.2-.2-.2-.2-.4-.2-.7s.1-.6.3-.7c.1-.2.3-.3.5-.3h.5c.2,0,.4,0,.5,0,.2,0,.3-.2.4-.3.1-.2.2-.3.2-.5s.2-.4.2-.7c.1-.6.3-1.2.6-1.7s.6-1,1-1.3c.4-.4.8-.7,1.3-.9s1-.3,1.6-.3,1.2,0,1.6.3c.5.2.9.5,1.1.8.3.4.5.8.6,1.2s.1,1,0,1.5c0,.2,0,.4-.1.6s-.1.4-.2.6c.1.2.3.4.6.5.3.2.6.2.9.2s.3,0,.3.3v1.5h0c-.2,0-.4,0-.6,0s-.4,0-.7-.2c-.2,0-.4-.2-.6-.4-.2-.2-.4-.4-.5-.6-.5.4-.9.7-1.4.9s-1,.3-1.6.3-1,0-1.4-.2-.8-.4-1.2-.8c-.3.4-.7.6-1,.7-.3,0-.7.2-1.3.2h-.5v-.2l-.3.4Z"/>
    <path id="Fill-310" class="st3" d="M176.6,21.8c.4,0,.6,0,.9,0s.4-.2.6-.3c.2-.2.3-.3.3-.5s.1-.4.2-.7l1.1-8.9h2.3l-1.2,9.3c0,.5-.2,1-.4,1.3-.2.4-.4.7-.7.9s-.7.5-1.2.6-1.1.2-1.8.2-.5,0-.6-.2c-.2-.2-.2-.4-.2-.7s.1-.6.3-.7c.2-.2.3-.3.5-.3"/>
    <polygon id="Fill-312" class="st3" points="186.6 11.3 185 23.7 182.7 23.7 184.2 11.3 186.6 11.3"/>
    <path id="Fill-314" class="st3" d="M12.7,34c-.4-.2-.8-.3-1.2-.4-.4,0-.9,0-1.3,0h-.7c-.3,0-.5,0-.7.2-.2,0-.4.3-.5.4-.2.2-.2.4-.3.6v.6c0,.2.2.3.4.5s.4.3.7.4c.3.2.6.3,1,.5.5.2.9.4,1.3.6.4.2.7.5,1,.8s.5.6.6,1,.2.8,0,1.3c0,.6-.3,1.1-.6,1.6s-.7.8-1.1,1.1c-.5.3-1,.5-1.5.7-.6.2-1.1.2-1.7.2s-1.1,0-1.7-.2c-.6,0-1.2-.3-1.8-.5l.7-2c.5.2,1.1.4,1.6.5s1,.2,1.4.2c.7,0,1.2,0,1.6-.4.4-.2.6-.6.7-1v-.6c0-.2-.2-.4-.4-.5-.2-.2-.4-.3-.7-.5s-.6-.3-1-.5c-.5-.2-.9-.4-1.2-.6-.4-.2-.7-.5-.9-.8s-.5-.6-.6-1-.2-.8,0-1.2c0-.6.3-1.1.6-1.6s.7-.8,1.1-1.1.9-.5,1.4-.6,1-.2,1.5-.2,1.1,0,1.7,0c.5,0,1,.2,1.4.3l-.9,2.1h.1Z"/>
    <path id="Fill-316" class="st3" d="M19.7,39.7h-1.1c-.3,0-.7,0-1,.2-.3,0-.5.3-.7.5s-.3.4-.3.7,0,.7.3.9c.2.2.5.3.9.3s.6,0,.9-.2c.3,0,.5-.3.7-.5s.4-.4.5-.7.2-.5.2-.7v-.6c.1,0-.3,0-.3,0h-.1ZM20.3,38c0-.5,0-.8-.4-1.1s-.8-.4-1.4-.4-.7,0-1.1,0c-.4,0-.8.2-1.3.4l-.2-1.7c.4-.2.9-.3,1.4-.4.6,0,1.1-.2,1.5-.2,1.4,0,2.5.3,3.1.9.6.6.8,1.4.7,2.5l-.5,3.7c0,.3,0,.7-.1,1s0,.7,0,1h-2.2v-1.2h0c-.3.4-.7.7-1.1.9-.5.3-1,.4-1.6.4s-.8,0-1.1-.2c-.4,0-.7-.3-1-.5s-.5-.5-.6-.9c-.2-.4-.2-.8-.1-1.3.1-.6.3-1.2.6-1.6.4-.4.8-.7,1.3-.9.5-.2,1.2-.4,1.9-.5.7,0,1.4,0,2.2,0v-.2.3Z"/>
    <path id="Fill-318" class="st3" d="M30.2,43.8l.2-1.2h0c-.3.5-.7.8-1.2,1-.5.3-1.1.4-1.6.4s-1,0-1.3-.3c-.4-.2-.7-.4-1-.7s-.4-.6-.5-1-.1-.8,0-1.3l.8-5.9h2.4l-.6,5v1c0,.3,0,.5.2.7.1.2.3.4.5.5s.5.2.8.2.5,0,.7-.2c.3,0,.5-.2.7-.4s.4-.5.5-.8.3-.7.3-1.2l.6-4.8h2.4l-1.1,8.9h-2.8Z"/>
    <path id="Fill-320" class="st3" d="M37.4,39.4v1.1c0,.4,0,.7.3.9s.3.5.6.6c.3.2.5.2.9.2s.7,0,1-.2.6-.4.8-.6.4-.6.6-.9c.2-.4.3-.7.3-1.1v-1.1c0-.3-.2-.7-.3-.9s-.4-.5-.6-.6-.6-.2-.9-.2-.7,0-.9.2c-.3.2-.5.4-.7.6s-.4.6-.5.9c-.2.3-.3.7-.4,1.1h-.2ZM42.5,31.5h2.4l-1.6,12.4h-2.4l.2-1.1h0c-.4.5-.9.8-1.4,1s-1,.3-1.5.3-1.1,0-1.6-.4-.8-.6-1-1-.5-.9-.5-1.5c0-.6,0-1.2,0-1.8,0-.7.3-1.3.5-1.8s.6-1.1.9-1.5c.4-.4.8-.7,1.3-1s1.1-.4,1.7-.4,1,0,1.4.3c.5.2.8.5,1.1.9h0l.5-4.5h0Z"/>
    <path id="Fill-322" class="st3" d="M49.7,31.5l-.3,2.1h-2.4l.3-2.1h2.4ZM49.2,34.9l-1.1,8.9h-2.4l1.1-8.9s2.4,0,2.4,0Z"/>
    <path id="Fill-324" class="st3" d="M58.3,36.7h1.7c.7,0,1.2,0,1.6-.4.4-.3.6-.6.7-1.2v-.7c0-.2-.2-.3-.4-.4-.2,0-.4-.2-.6-.2h-2.5s-.5,2.9-.5,2.9ZM57.6,41.8h2.9c.3,0,.5,0,.7-.3.2,0,.4-.3.5-.5s.2-.5.3-.8,0-.6,0-.8-.3-.4-.4-.5c-.2,0-.4-.2-.7-.3h-2.7s-.5,3.2-.5,3.2ZM56.5,31.8h5c.5,0,1,0,1.4.2.4,0,.8.3,1.1.5.3.3.5.6.7.9.2.4.2.8,0,1.4,0,.8-.4,1.4-.8,1.8s-.9.7-1.5.9h0c.3.2.6.3.8.4.3.2.5.3.6.6.2.2.3.5.4.8,0,.3,0,.7,0,1.1,0,.5-.2.9-.4,1.3-.2.4-.5.8-.8,1.1-.4.3-.8.6-1.3.7-.5.2-1.1.3-1.8.3h-5.1l1.5-12h.1Z"/>
    <path id="Fill-326" class="st3" d="M71.9,43.8l.2-1.2h0c-.3.5-.7.8-1.2,1-.5.3-1.1.4-1.6.4s-1,0-1.3-.3c-.4-.2-.7-.4-1-.7s-.4-.6-.5-1,0-.8,0-1.3l.8-5.9h2.4l-.6,5v1c0,.3,0,.5.2.7s.3.4.5.5.5.2.8.2.5,0,.7-.2c.3,0,.5-.2.7-.4s.4-.5.5-.8.3-.7.3-1.2l.6-4.8h2.4l-1.1,8.9h-2.8Z"/>
    <path id="Fill-328" class="st3" d="M82.8,37c-.5-.2-.9-.3-1.2-.4-.4,0-.8,0-1.1,0s-.6,0-.9.2c-.2,0-.4.3-.4.6s0,.5.3.6c.2.2.6.4,1.2.5.5.2.9.3,1.2.5.4.2.6.4.9.6s.4.5.5.8,0,.6,0,1c0,.5-.2.9-.5,1.3-.3.4-.6.6-1,.8s-.8.4-1.2.5c-.5,0-.9.2-1.3.2s-1.1,0-1.7-.2c-.6,0-1.1-.3-1.5-.5l.7-1.8c.5.2,1,.4,1.4.5.5,0,.9.2,1.3.2s.8,0,1.1-.2c.3,0,.4-.3.5-.6,0-.3,0-.5-.3-.7s-.7-.4-1.4-.6c-.9-.3-1.5-.7-2-1.1-.4-.4-.5-1-.5-1.6s.2-.9.5-1.2c.3-.4.5-.6.9-.9.4-.2.8-.4,1.2-.5s.9-.2,1.3-.2,1,0,1.5,0,1,.2,1.4.4l-.7,1.8h-.2Z"/>
    <path id="Fill-330" class="st3" d="M88.8,31.5l-.3,2.1h-2.4l.3-2.1h2.4ZM88.3,34.9l-1.1,8.9h-2.4l1.1-8.9s2.4,0,2.4,0Z"/>
    <path id="Fill-332" class="st3" d="M93.1,34.9l-.2,1.2h0c.3-.5.7-.8,1.2-1,.5-.3,1.1-.4,1.6-.4s1,0,1.3.2c.4.2.7.4,1,.7s.4.6.5,1,0,.8,0,1.3l-.8,5.9h-2.4l.6-5v-1c0-.3,0-.6-.2-.7,0-.2-.3-.4-.5-.5s-.5-.2-.8-.2-.5,0-.7,0-.5.2-.7.4-.4.5-.6.8-.3.7-.3,1.1l-.6,4.8h-2.4l1.1-8.9h2.4l.5.2Z"/>
    <path id="Fill-334" class="st3" d="M105.2,36.3c-.6,0-1,.2-1.5.6-.4.4-.7.9-.9,1.5h3.9c0-.6,0-1.1-.3-1.5-.2-.4-.6-.6-1.2-.6h0ZM102.7,40.1c0,.4,0,.7.2,1,0,.3.3.5.6.7.3.2.5.3.9.4.3,0,.7,0,1.1,0h1.1c.4,0,.7-.2,1.1-.3v1.7c-.4,0-.8.2-1.2.3s-.9,0-1.4,0c-.8,0-1.5,0-2.1-.4-.6-.2-1.1-.6-1.4-1s-.6-.9-.8-1.5c-.2-.6-.2-1.2,0-1.9s.3-1.3.6-1.8c.3-.6.6-1.1,1.1-1.5.4-.4.9-.7,1.5-1,.6-.2,1.2-.4,1.9-.4s1.2,0,1.7.3.9.5,1.1.9c.3.4.5.8.6,1.4s0,1.1,0,1.8v1h-6.5Z"/>
    <path id="Fill-336" class="st3" d="M116.5,37c-.5-.2-.9-.3-1.2-.4-.4,0-.8,0-1.1,0s-.6,0-.9.2c-.2,0-.4.3-.4.6s0,.5.3.6c.2.2.6.4,1.2.5.5.2.9.3,1.2.5.4.2.6.4.9.6s.4.5.5.8,0,.6,0,1c0,.5-.2.9-.5,1.3-.3.4-.6.6-1,.8s-.8.4-1.2.5c-.5,0-.9.2-1.3.2s-1.1,0-1.7-.2c-.6,0-1.1-.3-1.5-.5l.7-1.8c.5.2,1,.4,1.4.5.5,0,.9.2,1.3.2s.8,0,1.1-.2c.3,0,.4-.3.5-.6,0-.3,0-.5-.3-.7s-.7-.4-1.4-.6c-.9-.3-1.5-.7-2-1.1-.4-.4-.5-1-.5-1.6s.2-.9.5-1.2c.3-.4.5-.6.9-.9.4-.2.8-.4,1.2-.5s.9-.2,1.3-.2,1,0,1.5,0,1,.2,1.4.4l-.7,1.8h-.2Z"/>
    <path id="Fill-338" class="st3" d="M124.5,37c-.5-.2-.9-.3-1.2-.4-.4,0-.8,0-1.1,0s-.6,0-.9.2c-.2,0-.4.3-.4.6s0,.5.3.6c.2.2.6.4,1.2.5.5.2.9.3,1.2.5.4.2.6.4.9.6s.4.5.5.8,0,.6,0,1c0,.5-.2.9-.5,1.3-.3.4-.6.6-1,.8s-.8.4-1.2.5c-.5,0-.9.2-1.3.2s-1.1,0-1.7-.2c-.6,0-1.1-.3-1.5-.5l.7-1.8c.5.2,1,.4,1.4.5.5,0,.9.2,1.3.2s.8,0,1.1-.2c.3,0,.4-.3.5-.6,0-.3,0-.5-.3-.7s-.7-.4-1.4-.6c-.9-.3-1.5-.7-2-1.1-.4-.4-.5-1-.5-1.6s.2-.9.5-1.2c.3-.4.5-.6.9-.9.4-.2.8-.4,1.2-.5s.9-.2,1.3-.2,1,0,1.5,0,1,.2,1.4.4l-.7,1.8h-.2Z"/>
    <path id="Fill-340" class="st3" d="M140.3,34c-.3,0-.7-.2-1-.3s-.7,0-1.1,0c-.6,0-1.2,0-1.7.4-.5.2-1,.5-1.3.9-.4.4-.7.8-.9,1.4-.2.5-.4,1.1-.5,1.6v1.6c0,.5.3,1,.6,1.3.3.4.6.7,1.1.9s1,.4,1.6.4.9,0,1.2,0c.4,0,.7-.2,1.1-.4l.2,1.9c-.5.2-.9.3-1.4.4-.5,0-1,0-1.6,0-.9,0-1.7-.2-2.4-.5s-1.3-.7-1.7-1.3-.8-1.2-1-2-.2-1.6-.1-2.5c.1-.9.4-1.7.7-2.5.4-.8.9-1.4,1.4-2,.6-.6,1.3-1,2.1-1.3s1.7-.5,2.6-.5,1,0,1.5,0,.9.2,1.3.4l-.7,2h0Z"/>
    <path id="Fill-342" class="st3" d="M146,36.3c-.6,0-1,.2-1.5.6-.4.4-.7.9-.9,1.5h3.9c.1-.6,0-1.1-.3-1.5-.2-.4-.6-.6-1.2-.6h0ZM143.4,40.1c0,.4,0,.7.2,1,.1.3.3.5.6.7s.5.3.9.4c.3,0,.7,0,1.1,0h1.1c.4,0,.7-.2,1.1-.3v1.7l-1.2.3c-.4,0-.9,0-1.4,0-.8,0-1.5,0-2.1-.4-.6-.2-1.1-.6-1.4-1-.4-.4-.6-.9-.8-1.5s-.2-1.2-.1-1.9c.1-.7.3-1.3.6-1.8.3-.6.6-1.1,1.1-1.5.4-.4.9-.7,1.5-1,.6-.2,1.2-.4,1.9-.4s1.2,0,1.7.3.9.5,1.1.9c.3.4.5.8.6,1.4s.1,1.1,0,1.8v1h-6.5Z"/>
    <path id="Fill-344" class="st3" d="M154.4,34.9l-.2,1.2h0c.3-.5.7-.8,1.2-1,.5-.3,1.1-.4,1.6-.4s1,0,1.3.2.7.4,1,.7.4.6.5,1,.1.8,0,1.3l-.8,5.9h-2.4l.6-5v-1c0-.3,0-.6-.2-.7-.1-.2-.3-.4-.5-.5s-.5-.2-.8-.2-.5,0-.7,0-.5.2-.7.4-.4.5-.6.8c-.2.3-.3.7-.3,1.1l-.6,4.8h-2.4l1.1-8.9h2.4l.5.2Z"/>
    <path id="Fill-346" class="st3" d="M161.7,34.9h1.4l.3-2.4h2.4l-.3,2.4h1.8l-.3,1.8h-1.8l-.5,4v.7c0,.1,0,.3.1.4,0,0,.2.2.3.2h1.3l-.2,1.8h-1.6c-.6,0-1,0-1.3-.2-.3,0-.6-.3-.7-.5-.2-.2-.3-.5-.3-.8v-1.1l.6-4.6h-1.4l.2-1.7h0Z"/>
    <path id="Fill-348" class="st3" d="M172.6,36.3c-.6,0-1,.2-1.5.6-.4.4-.7.9-.9,1.5h3.9c.1-.6,0-1.1-.3-1.5s-.7-.6-1.2-.6h0ZM170,40.1c0,.4,0,.7.2,1s.3.5.6.7.5.3.9.4c.3,0,.7,0,1.1,0h1.1c.4,0,.7-.2,1.1-.3v1.7l-1.2.3c-.4,0-.9,0-1.4,0-.8,0-1.5,0-2.1-.4-.6-.2-1.1-.6-1.4-1-.4-.4-.6-.9-.8-1.5s-.2-1.2-.1-1.9c.1-.7.3-1.3.6-1.8.3-.6.6-1.1,1.1-1.5s.9-.7,1.5-1c.6-.2,1.2-.4,1.9-.4s1.2,0,1.7.3.9.5,1.1.9c.3.4.5.8.6,1.4s.1,1.1,0,1.8v1h-6.5Z"/>
    <path id="Fill-350" class="st3" d="M183.7,36.6h-.7c-.3,0-.6,0-.8.2-.3,0-.5.3-.8.5s-.4.6-.6.9c-.2.4-.3.9-.4,1.4l-.6,4.3h-2.4l1.1-8.9h2.4l-.2,1.2h0c.6-.9,1.4-1.4,2.5-1.4h.7l-.4,1.8h.2Z"/>
  </g>
  <path id="Fill-352" class="st5" d="M244.6,40.3c-.3.6-1,.8-1.6.6-1.2-.4-2.3-.7-3.4-1-1.1-.4-2.3-.7-3.4-.9-2.3-.6-4.6-1.1-6.9-1.5h0c-1.1-.2-1.8-1.2-1.6-2.4,0-.2.1-.4.2-.6,1.1-2.1,2.4-3.9,3.6-5.7s2.7-3.5,4.2-5.2c.5-.6,1.4-.6,2-.1.5.4.6,1.1.3,1.6h0c-1,2-2.1,3.8-3.2,5.7l-1.6,2.8c0,0-.2.3-.2.4,1.5.4,3,.8,4.5,1.3,1.2.4,2.4.9,3.5,1.4s2.3,1.1,3.4,1.7c.6.5.9,1.3.5,2"/>
  <path id="Fill-354" class="st7" d="M217.6,37.2c-.2,0-.4.2-.6.2h0c-2.3.4-4.6.9-6.9,1.5-1.1.3-2.3.6-3.4.9s-2.3.7-3.4,1h0c-.7.2-1.5-.2-1.7-.9-.2-.6.1-1.2.6-1.6,1.1-.6,2.2-1.2,3.3-1.7s2.3-1,3.5-1.4c1.5-.5,3-1,4.5-1.3,0,0-.2-.3-.2-.4l-1.6-2.8c-1.1-1.8-2.2-3.7-3.2-5.7h0c-.4-.7-.1-1.5.6-1.8.6-.3,1.2-.2,1.6.3,1.5,1.6,2.9,3.4,4.2,5.2s2.5,3.6,3.6,5.7c.6.9.3,2.2-.8,2.7"/>
  <path id="Fill-356" class="st8" d="M231.8,62.9c-.6.2-1.3,0-1.6-.6h0c-.8-1.2-1.5-2.5-2.3-3.8l-2.2-3.8-2.2-3.8c-.2-.3-.4-.6-.5-.9-.2.3-.4.6-.5.9l-2.2,3.8-2.2,3.8c-.8,1.2-1.5,2.5-2.3,3.7h0c-.4.6-1.2.8-1.9.4-.6-.4-.8-1-.6-1.6.5-1.4,1.1-2.7,1.7-4.1.6-1.3,1.2-2.7,1.8-4,.7-1.3,1.3-2.7,2.1-4s1.4-2.6,2.3-3.9h0c.6-1,1.8-1.2,2.8-.6.2.2.4.4.6.6.9,1.3,1.6,2.6,2.3,4,.7,1.3,1.4,2.6,2,4,.7,1.3,1.3,2.7,1.8,4,.6,1.4,1.2,2.7,1.7,4.1.3.8-.1,1.6-.8,1.8"/>
  <path id="Fill-358" class="st4" d="M221.7,17.6c-.3-1-.5-2.1-.6-3.1s-.1-2.1-.1-3.1c0-2.1.2-4.2.7-6.2.2-.8.9-1.2,1.7-1,.5.2.9.6,1,1,.5,2.1.6,4.2.7,6.2,0,1,0,2.1-.1,3.1s-.3,2.1-.6,3.1c-.2.8-1,1.2-1.8.9-.5-.1-.8-.5-1-.9"/>
  <path id="Fill-360" class="st6" d="M249.5,49.6c-.4.6-1.2.9-1.8.7h0c-1.5-.5-2.9-1.1-4.4-1.5-1.5-.5-3-.9-4.5-1.4-1.4-.4-2.9-.8-4.3-1.1,1,1.7,2,3.5,3,5.3.9,1.6,1.8,3.2,2.7,4.9.8,1.7,1.7,3.3,2.4,5.1.4.8,0,1.7-.8,2.1-.7.3-1.5,0-1.9-.6l-6-9.2c-2-3.1-4-6.3-5.6-9.7h0c-.6-1.1-.1-2.5,1-3.1.5-.2,1-.3,1.4-.2,3.3.6,6.5,1.4,9.6,2.5,1.5.6,3.1,1.2,4.6,1.9s2.9,1.4,4.4,2.3c.6.3.9,1.3.4,2.1"/>
  <path id="Fill-362" class="st2" d="M218.1,44h0c-1.7,3.4-3.6,6.7-5.6,9.8l-6,9.2c-.5.7-1.4.9-2.2.5-.7-.4-.9-1.2-.6-1.9.7-1.7,1.5-3.4,2.4-5.1.9-1.6,1.7-3.3,2.7-4.9,1-1.8,2-3.5,2.9-5.3-1.4.4-2.9.7-4.3,1.1-1.5.4-3,.9-4.5,1.4s-3,1-4.4,1.5h0c-.8.3-1.7-.2-2-.9s0-1.5.7-1.8c1.4-.9,2.9-1.6,4.4-2.3s3-1.3,4.6-1.9c3.1-1.1,6.3-2,9.6-2.6,1.2-.2,2.5.6,2.7,1.9,0,.5,0,1-.3,1.4"/>
  <path id="Fill-364" class="st6" d="M244.2,52.5c1,.5,1.9,1.1,2.8,1.8s1.6,1.4,2.4,2.2c1.5,1.5,2.9,3.2,4.1,5.2.4.7.1,1.5-.6,1.9-.5.3-1,.2-1.5,0h0c-1.7-1.2-3.3-2.7-4.8-4.1-.8-.7-1.5-1.5-2.2-2.3s-1.4-1.6-2-2.6h0c-.4-.7-.2-1.5.5-2,.4-.3.9-.3,1.3,0"/>
  <path id="Fill-366" class="st2" d="M203.7,54.4c-.6.9-1.2,1.8-2,2.6s-1.4,1.5-2.2,2.3c-1.5,1.4-3.1,2.9-4.8,4.1h0c-.6.5-1.5.3-2-.4-.3-.5-.3-1-.1-1.5,1.1-2,2.5-3.6,4-5.2.8-.8,1.6-1.5,2.4-2.2.9-.7,1.7-1.3,2.8-1.8.7-.4,1.5,0,1.9.6.3.6.2,1.1,0,1.5h0Z"/>
  <path id="Fill-368" class="st4" d="M234.2,16.1c-1.3,2.8-2.8,5.6-4.4,8.3-1.5,2.7-3.1,5.4-4.8,8h0c-.5.7-1.2,1.1-2,1.1h0c-.8,0-1.5-.5-2-1.1-1.6-2.7-3.2-5.3-4.8-8.1-.8-1.3-1.5-2.7-2.3-4.1s-1.5-2.8-2.2-4.2c-.4-.8,0-1.7.7-2.1.7-.4,1.5-.1,1.9.5,1,1.2,1.8,2.5,2.8,3.8s1.8,2.6,2.7,3.9c1,1.5,2.1,3.1,3.1,4.7,1-1.6,2.1-3.2,3.1-4.7,1.7-2.6,3.5-5.1,5.5-7.6.5-.7,1.5-.8,2.2-.3.5.5.6,1.3.4,1.9"/>
  <text class="st0" transform="translate(10.9 60.6)"><tspan x="0" y="0">0000139748</tspan></text>
  <g>
    <path class="st1" d="M14.9,60.8c-.7,0-1.3-.2-1.8-.5-.5-.3-1-.8-1.3-1.5-.3-.6-.5-1.4-.5-2.4s.2-1.7.5-2.4.7-1.1,1.3-1.5c.5-.3,1.2-.5,1.8-.5s1.3.2,1.9.5c.5.3,1,.8,1.3,1.5s.5,1.4.5,2.4-.2,1.7-.5,2.4c-.3.6-.7,1.1-1.3,1.5-.5.3-1.2.5-1.9.5ZM14.9,59.1c.3,0,.6,0,.9-.3.2-.2.4-.5.6-.9.1-.4.2-.9.2-1.5s0-1.1-.2-1.5c-.1-.4-.3-.7-.6-.9-.2-.2-.5-.3-.9-.3s-.6,0-.8.3c-.2.2-.4.5-.6.9-.1.4-.2.9-.2,1.5s0,1.1.2,1.5c.1.4.3.7.6.9.2.2.5.3.8.3Z"/>
    <path class="st1" d="M23.1,60.8c-.7,0-1.3-.2-1.8-.5-.5-.3-1-.8-1.3-1.5-.3-.6-.5-1.4-.5-2.4s.2-1.7.5-2.4.7-1.1,1.3-1.5c.5-.3,1.2-.5,1.8-.5s1.3.2,1.9.5c.5.3,1,.8,1.3,1.5s.5,1.4.5,2.4-.2,1.7-.5,2.4c-.3.6-.7,1.1-1.3,1.5-.5.3-1.2.5-1.9.5ZM23.1,59.1c.3,0,.6,0,.9-.3.2-.2.4-.5.6-.9.1-.4.2-.9.2-1.5s0-1.1-.2-1.5c-.1-.4-.3-.7-.6-.9-.2-.2-.5-.3-.9-.3s-.6,0-.8.3c-.2.2-.4.5-.6.9-.1.4-.2.9-.2,1.5s0,1.1.2,1.5c.1.4.3.7.6.9.2.2.5.3.8.3Z"/>
    <path class="st1" d="M31.2,60.8c-.7,0-1.3-.2-1.8-.5-.5-.3-1-.8-1.3-1.5-.3-.6-.5-1.4-.5-2.4s.2-1.7.5-2.4.7-1.1,1.3-1.5c.5-.3,1.2-.5,1.8-.5s1.3.2,1.9.5c.5.3,1,.8,1.3,1.5s.5,1.4.5,2.4-.2,1.7-.5,2.4c-.3.6-.7,1.1-1.3,1.5-.5.3-1.2.5-1.9.5ZM31.2,59.1c.3,0,.6,0,.9-.3.2-.2.4-.5.6-.9.1-.4.2-.9.2-1.5s0-1.1-.2-1.5c-.1-.4-.3-.7-.6-.9-.2-.2-.5-.3-.9-.3s-.6,0-.8.3c-.2.2-.4.5-.6.9-.1.4-.2.9-.2,1.5s0,1.1.2,1.5c.1.4.3.7.6.9.2.2.5.3.8.3Z"/>
    <path class="st1" d="M39.4,60.8c-.7,0-1.3-.2-1.8-.5-.5-.3-1-.8-1.3-1.5-.3-.6-.5-1.4-.5-2.4s.2-1.7.5-2.4.7-1.1,1.3-1.5c.5-.3,1.2-.5,1.8-.5s1.3.2,1.9.5c.5.3,1,.8,1.3,1.5s.5,1.4.5,2.4-.2,1.7-.5,2.4c-.3.6-.7,1.1-1.3,1.5-.5.3-1.2.5-1.9.5ZM39.4,59.1c.3,0,.6,0,.9-.3.2-.2.4-.5.6-.9.1-.4.2-.9.2-1.5s0-1.1-.2-1.5c-.1-.4-.3-.7-.6-.9-.2-.2-.5-.3-.9-.3s-.6,0-.8.3c-.2.2-.4.5-.6.9-.1.4-.2.9-.2,1.5s0,1.1.2,1.5c.1.4.3.7.6.9.2.2.5.3.8.3Z"/>
    <path class="st1" d="M45.2,60.6v-7.7l.8.8h-2.5v-1.6h3.6v8.4h-1.9Z"/>
    <path class="st1" d="M51.3,60.8c-.6,0-1.2,0-1.7-.2-.6-.2-1.1-.4-1.5-.7l.8-1.5c.3.2.7.4,1.1.6.4.1.9.2,1.3.2s.9,0,1.2-.3c.3-.2.4-.5.4-.8s-.1-.6-.4-.8c-.2-.2-.6-.3-1.2-.3h-.9v-1.3l2.3-2.7.2.7h-4.4v-1.6h5.9v1.3l-2.3,2.7-1-.6h.6c1,0,1.8.2,2.3.7.5.5.8,1.1.8,1.8s-.1.9-.4,1.3c-.2.4-.6.7-1.1,1-.5.3-1.2.4-2,.4Z"/>
    <path class="st1" d="M58.6,52.1c.8,0,1.4.2,2,.5.6.3,1,.8,1.3,1.4.3.6.5,1.4.5,2.3s-.2,1.8-.5,2.5c-.4.7-.9,1.2-1.5,1.5-.6.4-1.4.5-2.2.5s-.9,0-1.3-.1c-.4,0-.8-.2-1.1-.4l.7-1.4c.2.2.5.3.7.3.3,0,.5,0,.8,0,.7,0,1.3-.2,1.7-.7.4-.4.6-1.1.6-2s0-.3,0-.5c0-.2,0-.4,0-.5l.5.5c-.1.3-.3.6-.6.8-.2.2-.5.4-.9.5-.3.1-.7.2-1.1.2s-1-.1-1.5-.3-.8-.5-1-.9c-.3-.4-.4-.9-.4-1.4s.1-1.1.4-1.5c.3-.4.7-.7,1.2-1,.5-.2,1-.3,1.6-.3ZM58.8,53.5c-.3,0-.5,0-.7.2-.2,0-.4.2-.5.4-.1.2-.2.4-.2.7,0,.4.1.7.4.9s.6.3,1,.3.5,0,.8-.2c.2-.1.4-.3.5-.4.1-.2.2-.4.2-.6s0-.5-.2-.6c-.1-.2-.3-.3-.5-.4s-.5-.2-.8-.2Z"/>
    <path class="st1" d="M64.6,60.6l3.4-7.7.5.8h-4.5l.9-.9v2.3h-1.7v-3h6.7v1.3l-3.1,7.1h-2.1Z"/>
    <path class="st1" d="M69.9,58.9v-1.3l4-5.3h2l-3.9,5.3-.9-.3h6.6v1.6h-7.8ZM74.4,60.6v-3.3c0,0,0-1.6,0-1.6h1.8v4.9h-1.9Z"/>
    <path class="st1" d="M81.8,60.8c-.7,0-1.3-.1-1.8-.3-.5-.2-.9-.5-1.2-.9-.3-.4-.4-.8-.4-1.4s.1-1,.4-1.3.7-.6,1.2-.8c.5-.2,1.1-.3,1.9-.3s1.3,0,1.9.3c.5.2.9.5,1.2.8s.4.8.4,1.3-.1,1-.4,1.4c-.3.4-.7.7-1.2.9-.5.2-1.2.3-1.9.3ZM81.8,56.7c-.6,0-1.2,0-1.7-.3s-.9-.4-1.1-.8-.4-.7-.4-1.2.1-.9.4-1.3c.3-.4.7-.6,1.1-.8.5-.2,1-.3,1.7-.3s1.2,0,1.7.3c.5.2.9.5,1.1.8.3.4.4.8.4,1.3s-.1.9-.4,1.2-.6.6-1.1.8c-.5.2-1.1.3-1.7.3ZM81.8,59.3c.5,0,.9-.1,1.2-.3.3-.2.4-.5.4-.9s-.1-.7-.4-.9c-.3-.2-.7-.3-1.2-.3s-.9.1-1.1.3c-.3.2-.4.5-.4.9s.1.7.4.9c.3.2.7.3,1.1.3ZM81.8,55.6c.4,0,.7,0,1-.3.2-.2.4-.4.4-.8s-.1-.6-.4-.8c-.2-.2-.6-.3-1-.3s-.7,0-.9.3c-.2.2-.4.4-.4.8s.1.6.3.8.5.3.9.3Z"/>
  </g>
</svg>